name D:\school\WTK\thesis\model\3dpredictsim\Results\Batchsim_tmt_linear_v2\Pog_s1_tmt_bCst_d02_k1000_ig24_act.mot
datacolumns 128
datarows 4
range 0.00000000 0.03894262
endheader
time	pelvis_tilt	pelvis_list	pelvis_rotation	pelvis_tx	pelvis_ty	pelvis_tz	hip_flexion_l	hip_adduction_l	hip_rotation_l	hip_flexion_r	hip_adduction_r	hip_rotation_r	knee_angle_l	knee_angle_r	ankle_angle_l	ankle_angle_r	subtalar_angle_l	subtalar_angle_r	tmt_angle_l	tmt_angle_r	mtp_angle_l	mtp_angle_r	lumbar_extension	lumbar_bending	lumbar_rotation	arm_flex_l	arm_add_l	arm_rot_l	arm_flex_r	arm_add_r	arm_rot_r	elbow_flex_l	elbow_flex_r	pro_sup_l	pro_sup_r	glut_med1_l/activation	glut_med2_l/activation	glut_med3_l/activation	glut_min1_l/activation	glut_min2_l/activation	glut_min3_l/activation	semimem_l/activation	semiten_l/activation	bifemlh_l/activation	bifemsh_l/activation	sar_l/activation	add_long_l/activation	add_brev_l/activation	add_mag1_l/activation	add_mag2_l/activation	add_mag3_l/activation	tfl_l/activation	pect_l/activation	grac_l/activation	glut_max1_l/activation	glut_max2_l/activation	glut_max3_l/activation	iliacus_l/activation	psoas_l/activation	quad_fem_l/activation	gem_l/activation	peri_l/activation	rect_fem_l/activation	vas_med_l/activation	vas_int_l/activation	vas_lat_l/activation	med_gas_l/activation	lat_gas_l/activation	soleus_l/activation	tib_post_l/activation	flex_dig_l/activation	flex_hal_l/activation	tib_ant_l/activation	per_brev_l/activation	per_long_l/activation	per_tert_l/activation	ext_dig_l/activation	ext_hal_l/activation	ercspn_l/activation	intobl_l/activation	extobl_l/activation	glut_med1_r/activation	glut_med2_r/activation	glut_med3_r/activation	glut_min1_r/activation	glut_min2_r/activation	glut_min3_r/activation	semimem_r/activation	semiten_r/activation	bifemlh_r/activation	bifemsh_r/activation	sar_r/activation	add_long_r/activation	add_brev_r/activation	add_mag1_r/activation	add_mag2_r/activation	add_mag3_r/activation	tfl_r/activation	pect_r/activation	grac_r/activation	glut_max1_r/activation	glut_max2_r/activation	glut_max3_r/activation	iliacus_r/activation	psoas_r/activation	quad_fem_r/activation	gem_r/activation	peri_r/activation	rect_fem_r/activation	vas_med_r/activation	vas_int_r/activation	vas_lat_r/activation	med_gas_r/activation	lat_gas_r/activation	soleus_r/activation	tib_post_r/activation	flex_dig_r/activation	flex_hal_r/activation	tib_ant_r/activation	per_brev_r/activation	per_long_r/activation	per_tert_r/activation	ext_dig_r/activation	ext_hal_r/activation	ercspn_r/activation	intobl_r/activation	extobl_r/activation	
          0.00000000	         -2.27775342	          1.45627880	          9.71562226	          0.00000000	          0.85934044	         -0.00441840	        -16.48721638	         -0.01648727	          5.35042406	         29.53403419	         -2.95702742	         -0.36667373	        -16.37666490	         -7.32548374	        -12.29788866	          9.86771671	          7.75391040	          2.93866787	          1.06042452	          0.01934788	         35.06863397	         -0.06496311	          1.73176106	         -5.13201260	         -3.83452999	          1.81271065	        -13.54541124	         10.45965665	        -14.11012299	        -13.44981835	         14.73298853	         32.60272955	         19.56364765	         86.51662706	         86.51662706	          0.23913726	          0.06082728	          0.05000375	          0.23460819	          0.11449288	          0.06117903	          0.05000297	          0.05000030	          0.05000034	          0.05000241	          0.07506262	          0.17475305	          0.06044440	          0.05001623	          0.05000173	          0.05000056	          0.15741048	          0.08904783	          0.05011029	          0.05000275	          0.05000174	          0.05000105	          0.27465444	          0.44931318	          0.05000209	          0.05018862	          0.07397522	          0.21769299	          0.08591578	          0.08918754	          0.08130729	          0.05000002	          0.07859198	          0.05000000	          0.11482876	          0.10170462	          0.12693654	          0.08872235	          0.21641186	          0.18540435	          0.40412959	          0.38258045	          0.09378461	          0.05000001	          0.06353368	          0.06852389	          0.08424411	          0.06735476	          0.09081915	          0.05000384	          0.05002647	          0.05000259	          0.06081735	          0.05258907	          0.05568859	          0.06080528	          0.06081737	          0.05000098	          0.05000059	          0.15054124	          0.12326391	          0.11828046	          0.06284180	          0.05000193	          0.05000073	          0.05928453	          0.08509271	          0.11587528	          0.08222632	          0.08619980	          0.08770596	          0.05498385	          0.07949650	          0.05375558	          0.05962092	          0.07394828	          0.05368943	          0.06081740	          0.06081742	          0.06081739	          0.06081742	          0.05000131	          0.06081759	          0.44297544	          0.25023783	          0.15934762	          0.12257456	          0.55009912	          0.30430410	          0.05000002	          0.17516186	          0.13912456	
          0.01298087	         -2.26309659	          1.68659726	          9.74321233	          0.02248421	          0.85824610	         -0.00406702	        -16.66777210	         -0.15901312	          5.14094637	         28.97870340	         -2.94468227	         -0.19594790	        -17.94548804	         -7.85252633	        -15.34285617	          9.13268095	          8.36804176	          2.69476246	          0.81869190	          0.03924768	         35.85506699	         -0.05856112	          2.04179694	         -5.00966349	         -3.93813411	          1.40701913	        -13.61635319	         10.91384150	        -16.26515235	        -13.46180020	         14.90290050	         33.71940781	         19.86984953	         86.51662706	         86.51662706	          0.19660276	          0.05000824	          0.05000029	          0.19287927	          0.09412846	          0.05029753	          0.05000280	          0.05000050	          0.05000083	          0.05000019	          0.06171170	          0.25717996	          0.29645734	          0.17541744	          0.07290040	          0.06918154	          0.12941244	          0.09689707	          0.05200218	          0.05000533	          0.05000331	          0.05005967	          0.22580259	          0.36939555	          0.07397432	          0.05008106	          0.06081758	          0.17897265	          0.07063602	          0.07332498	          0.06684578	          0.05000011	          0.06461310	          0.05000003	          0.09440454	          0.08361483	          0.10435879	          0.26259114	          0.32145434	          0.20246959	          0.48136125	          0.54459969	          0.07710348	          0.05849367	          0.06523710	          0.06082169	          0.13458825	          0.14279687	          0.20714913	          0.05000245	          0.05000223	          0.05000071	          0.05000011	          0.05152940	          0.05000037	          0.05000065	          0.05000055	          0.05000114	          0.08995933	          0.16763382	          0.20223315	          0.15814079	          0.05166443	          0.05000417	          0.06261276	          0.06081775	          0.15998974	          0.18913620	          0.06760102	          0.07086774	          0.07210710	          0.05000069	          0.15953677	          0.07397460	          0.25638847	          0.28626031	          0.21172830	          0.05000001	          0.05000003	          0.05000000	          0.05000004	          0.05371713	          0.05000042	          0.65590327	          0.35261037	          0.20094640	          0.52962929	          0.65844516	          0.49169657	          0.05000002	          0.14400638	          0.11437892	
          0.02596175	         -2.24043947	          1.90379948	          9.72411132	          0.04493960	          0.85656080	         -0.00371920	        -16.66129413	         -0.27109672	          4.96281609	         28.34117361	         -2.88123837	         -0.01051609	        -19.89073572	         -9.03282640	        -17.67215334	          8.08276774	          8.98913122	          2.47552274	          0.60388212	         -0.04169203	         34.78882588	         -0.12918070	          2.33224028	         -4.84278399	         -4.01958858	          0.98609213	        -13.69976093	         11.34104009	        -18.35363560	        -13.49707954	         15.20174933	         34.83588487	         20.09057120	         86.51662706	         86.51662706	          0.21750703	          0.06081718	          0.06081731	          0.15857258	          0.07738622	          0.05000187	          0.05000208	          0.05000050	          0.05000181	          0.05000016	          0.05073563	          0.24527795	          0.30491481	          0.14421793	          0.06081856	          0.06081757	          0.10639433	          0.07974730	          0.06079621	          0.05028016	          0.06074136	          0.06081660	          0.18563986	          0.30708627	          0.06081738	          0.05132775	          0.05000026	          0.14713936	          0.08381269	          0.07904528	          0.05887144	          0.05000004	          0.05312063	          0.05000001	          0.07761312	          0.06874266	          0.08579688	          0.28955875	          0.30926709	          0.18908864	          0.60184892	          0.67954624	          0.30954951	          0.08613895	          0.05408129	          0.05000356	          0.21024915	          0.27113931	          0.43122936	          0.05000146	          0.05000082	          0.32637593	          0.05030639	          0.05000009	          0.05000056	          0.05000009	          0.05000194	          0.06081752	          0.07395888	          0.13781752	          0.16626286	          0.15504976	          0.05000036	          0.06081779	          0.05147663	          0.05000042	          0.18622107	          0.18823324	          0.06081733	          0.05904141	          0.05928182	          0.10963344	          0.30834750	          0.06081705	          0.21078559	          0.23534423	          0.17406898	          0.05987112	          0.06081733	          0.06081735	          0.05000037	          0.06081728	          0.06081737	          0.59836871	          0.30650395	          0.16520560	          0.43542597	          0.68309195	          0.46904299	          0.05000011	          0.11839243	          0.09403471	
          0.03894262	         -2.21311350	          2.09492529	          9.65304972	          0.06702960	          0.85460560	         -0.00335933	        -16.44080493	         -0.36503641	          4.80493686	         27.67019923	         -2.77098642	          0.19453424	        -22.23564324	        -10.37174619	        -19.22971748	          7.16367107	          9.55864710	          2.26444955	          0.43769408	         -0.02167705	         31.72693849	         -0.14547888	          2.58679474	         -4.62256850	         -4.08162099	          0.61769922	        -13.77281449	         11.76157910	        -20.27877047	        -13.54050728	         15.64390616	         35.85624680	         20.13719293	         86.51662706	         86.51662706	          0.17882018	          0.05000003	          0.05000001	          0.18553271	          0.06362186	          0.05000009	          0.05653251	          0.05000011	          0.05000016	          0.05000014	          0.05006184	          0.24693343	          0.26650612	          0.11856683	          0.05000227	          0.05000078	          0.08747040	          0.06990345	          0.05000024	          0.05000032	          0.05000022	          0.05000021	          0.15262077	          0.30667785	          0.05000003	          0.05000009	          0.05000006	          0.12096816	          0.07397475	          0.07397487	          0.07397500	          0.05000019	          0.05000046	          0.05000011	          0.06380835	          0.05651581	          0.07053656	          0.36487317	          0.28370969	          0.17331665	          0.54294318	          0.77483669	          0.25449096	          0.12815765	          0.05000000	          0.05000002	          0.29170526	          0.39818253	          0.49164015	          0.15675921	          0.22960507	          0.26832565	          0.05000109	          0.06734906	          0.05684725	          0.06081719	          0.05000033	          0.05000015	          0.06080409	          0.11330449	          0.16078978	          0.17217073	          0.05000012	          0.05000065	          0.05009082	          0.27900765	          0.25139183	          0.22407358	          0.05000004	          0.05000004	          0.15661771	          0.09013360	          0.25350300	          0.05000002	          0.17329412	          0.21329284	          0.14310816	          0.05000000	          0.05000001	          0.05000000	          0.05000000	          0.05000012	          0.05000008	          0.73663581	          0.35984972	          0.17300699	          0.69734286	          0.80135772	          0.58655803	          0.05837342	          0.09733435	          0.07730907	
